# xmcd
#
# Track frame offsets:
#	150
#	22462
#	34500
#	43687
#	56212
#	66562
#	76200
#	85162
#	98212
#	107400
#	119475
#	126187
#	134025
#	138937
#	149362
#	155662
#
# Disc length: 2261 seconds
#
# Revision: 1
# Processed by: cddbd v1.5.2PL0 Copyright (c) Steve Scherf et al.
# Submitted via: dBpowerAMP V4.0
#
DISCID=ef08d310
DTITLE=Dry Branch Fire Squad - Memories That Bless And Burn
DYEAR=1999
DGENRE=Bluegrass
TTITLE0=Memories that bless and Burn
TTITLE1=Hide you in the Blood
TTITLE2=Looking for the Stone
TTITLE3=Looking for the Stone
TTITLE4=Were you there
TTITLE5=Travel on
TTITLE6=I'll Be no stranger
TTITLE7=When heaven comesdown
TTITLE8=I have Found a way
TTITLE9=Where will never Die
TTITLE10=Dip your fingers in some water
TTITLE11=The gospel way
TTITLE12=The god That never fails
TTITLE13=That Home far away
TTITLE14=When I went down in the valley to pray
TTITLE15=Touch the hem of his garmet
EXTD=
EXTT0=
EXTT1=
EXTT2=
EXTT3=
EXTT4=
EXTT5=
EXTT6=
EXTT7=
EXTT8=
EXTT9=
EXTT10=
EXTT11=
EXTT12=
EXTT13=
EXTT14=
EXTT15=
PLAYORDER=
